<mxfile host="app.diagrams.net" modified="2020-12-04T18:54:41.864Z" agent="5.0 (Windows)" etag="5pANjsh1VLhyDnPOFnxm" version="13.10.7" type="github" pages="4">
  <diagram id="GVrC-POoOXaIpefTEbi6" name="Шаг 1. Выделение явных групп пользователей">
    <mxGraphModel dx="1422" dy="791" grid="1" gridSize="10" guides="1" tooltips="1" connect="1" arrows="1" fold="1" page="1" pageScale="1" pageWidth="827" pageHeight="1169" math="0" shadow="0">
      <root>
        <mxCell id="0" />
        <mxCell id="1" parent="0" />
        <mxCell id="0_lMvIh6TYxcg3n2Zalz-46" style="edgeStyle=orthogonalEdgeStyle;rounded=0;orthogonalLoop=1;jettySize=auto;html=1;exitX=1;exitY=0.3333333333333333;exitDx=0;exitDy=0;exitPerimeter=0;entryX=0;entryY=0.5;entryDx=0;entryDy=0;endArrow=none;endFill=0;" parent="1" source="0_lMvIh6TYxcg3n2Zalz-47" target="0_lMvIh6TYxcg3n2Zalz-54" edge="1">
          <mxGeometry relative="1" as="geometry" />
        </mxCell>
        <mxCell id="0_lMvIh6TYxcg3n2Zalz-47" value="Игрок" style="shape=umlActor;verticalLabelPosition=bottom;verticalAlign=top;html=1;outlineConnect=0;" parent="1" vertex="1">
          <mxGeometry x="120" y="253" width="30" height="60" as="geometry" />
        </mxCell>
        <mxCell id="0_lMvIh6TYxcg3n2Zalz-48" style="edgeStyle=orthogonalEdgeStyle;rounded=0;orthogonalLoop=1;jettySize=auto;html=1;entryX=0;entryY=0.5;entryDx=0;entryDy=0;endArrow=none;endFill=0;" parent="1" source="0_lMvIh6TYxcg3n2Zalz-51" target="0_lMvIh6TYxcg3n2Zalz-69" edge="1">
          <mxGeometry relative="1" as="geometry">
            <Array as="points">
              <mxPoint x="210" y="815" />
              <mxPoint x="210" y="924" />
            </Array>
          </mxGeometry>
        </mxCell>
        <mxCell id="0_lMvIh6TYxcg3n2Zalz-49" style="edgeStyle=orthogonalEdgeStyle;rounded=0;orthogonalLoop=1;jettySize=auto;html=1;entryX=0;entryY=0.5;entryDx=0;entryDy=0;endArrow=none;endFill=0;" parent="1" source="0_lMvIh6TYxcg3n2Zalz-51" target="0_lMvIh6TYxcg3n2Zalz-68" edge="1">
          <mxGeometry relative="1" as="geometry">
            <Array as="points">
              <mxPoint x="210" y="815" />
              <mxPoint x="210" y="834" />
            </Array>
          </mxGeometry>
        </mxCell>
        <mxCell id="0_lMvIh6TYxcg3n2Zalz-50" style="edgeStyle=orthogonalEdgeStyle;rounded=0;orthogonalLoop=1;jettySize=auto;html=1;entryX=0;entryY=0.5;entryDx=0;entryDy=0;endArrow=none;endFill=0;" parent="1" source="0_lMvIh6TYxcg3n2Zalz-51" target="0_lMvIh6TYxcg3n2Zalz-67" edge="1">
          <mxGeometry relative="1" as="geometry">
            <Array as="points">
              <mxPoint x="210" y="815" />
              <mxPoint x="210" y="730" />
            </Array>
          </mxGeometry>
        </mxCell>
        <mxCell id="0_lMvIh6TYxcg3n2Zalz-51" value="Система" style="shape=umlActor;verticalLabelPosition=bottom;verticalAlign=top;html=1;outlineConnect=0;" parent="1" vertex="1">
          <mxGeometry x="125" y="785" width="30" height="60" as="geometry" />
        </mxCell>
        <mxCell id="0_lMvIh6TYxcg3n2Zalz-52" value="&lt;b&gt;&lt;font style=&quot;font-size: 18px&quot;&gt;Явные&lt;/font&gt;&lt;/b&gt;" style="text;html=1;align=center;verticalAlign=middle;resizable=0;points=[];autosize=1;" parent="1" vertex="1">
          <mxGeometry x="90" y="188" width="80" height="20" as="geometry" />
        </mxCell>
        <mxCell id="0_lMvIh6TYxcg3n2Zalz-53" value="1 шаг: выделяем очевидное" style="text;html=1;align=center;verticalAlign=middle;resizable=0;points=[];autosize=1;fontSize=18;fontStyle=1" parent="1" vertex="1">
          <mxGeometry x="80" y="40" width="270" height="30" as="geometry" />
        </mxCell>
        <mxCell id="0_lMvIh6TYxcg3n2Zalz-54" value="&lt;span&gt;Выбрать класс&lt;/span&gt;" style="ellipse;whiteSpace=wrap;html=1;" parent="1" vertex="1">
          <mxGeometry x="370" y="50" width="140" height="70" as="geometry" />
        </mxCell>
        <mxCell id="0_lMvIh6TYxcg3n2Zalz-55" value="&lt;span&gt;Сохранить прогресс&lt;/span&gt;" style="ellipse;whiteSpace=wrap;html=1;" parent="1" vertex="1">
          <mxGeometry x="370" y="243" width="140" height="70" as="geometry" />
        </mxCell>
        <mxCell id="0_lMvIh6TYxcg3n2Zalz-56" value="&lt;span&gt;Посмотреть статус&lt;/span&gt;" style="ellipse;whiteSpace=wrap;html=1;" parent="1" vertex="1">
          <mxGeometry x="375" y="328" width="140" height="70" as="geometry" />
        </mxCell>
        <mxCell id="0_lMvIh6TYxcg3n2Zalz-57" value="&lt;span&gt;Посмотреть инвентарь&lt;/span&gt;" style="ellipse;whiteSpace=wrap;html=1;" parent="1" vertex="1">
          <mxGeometry x="375" y="413" width="140" height="70" as="geometry" />
        </mxCell>
        <mxCell id="0_lMvIh6TYxcg3n2Zalz-58" value="&lt;span&gt;Зайти в магазин&lt;/span&gt;" style="ellipse;whiteSpace=wrap;html=1;" parent="1" vertex="1">
          <mxGeometry x="375" y="500" width="140" height="70" as="geometry" />
        </mxCell>
        <mxCell id="0_lMvIh6TYxcg3n2Zalz-59" style="edgeStyle=orthogonalEdgeStyle;rounded=0;orthogonalLoop=1;jettySize=auto;html=1;endArrow=none;endFill=0;" parent="1" source="0_lMvIh6TYxcg3n2Zalz-60" edge="1">
          <mxGeometry relative="1" as="geometry">
            <mxPoint x="260" y="525" as="targetPoint" />
          </mxGeometry>
        </mxCell>
        <mxCell id="0_lMvIh6TYxcg3n2Zalz-60" value="&lt;span&gt;Выполнить квест&lt;/span&gt;" style="ellipse;whiteSpace=wrap;html=1;" parent="1" vertex="1">
          <mxGeometry x="375" y="595" width="140" height="70" as="geometry" />
        </mxCell>
        <mxCell id="0_lMvIh6TYxcg3n2Zalz-61" value="&lt;span&gt;Выбрать сторону&lt;/span&gt;" style="ellipse;whiteSpace=wrap;html=1;" parent="1" vertex="1">
          <mxGeometry x="370" y="155" width="140" height="70" as="geometry" />
        </mxCell>
        <mxCell id="0_lMvIh6TYxcg3n2Zalz-62" style="edgeStyle=orthogonalEdgeStyle;rounded=0;orthogonalLoop=1;jettySize=auto;html=1;exitX=1;exitY=0.3333333333333333;exitDx=0;exitDy=0;exitPerimeter=0;entryX=0;entryY=0.5;entryDx=0;entryDy=0;endArrow=none;endFill=0;" parent="1" source="0_lMvIh6TYxcg3n2Zalz-47" target="0_lMvIh6TYxcg3n2Zalz-61" edge="1">
          <mxGeometry relative="1" as="geometry">
            <mxPoint x="220" y="284.9999999999999" as="sourcePoint" />
            <mxPoint x="380.00000000000296" y="94.99999999999989" as="targetPoint" />
          </mxGeometry>
        </mxCell>
        <mxCell id="0_lMvIh6TYxcg3n2Zalz-63" style="edgeStyle=orthogonalEdgeStyle;rounded=0;orthogonalLoop=1;jettySize=auto;html=1;exitX=1;exitY=0.3333333333333333;exitDx=0;exitDy=0;exitPerimeter=0;entryX=0;entryY=0.5;entryDx=0;entryDy=0;endArrow=none;endFill=0;" parent="1" source="0_lMvIh6TYxcg3n2Zalz-47" target="0_lMvIh6TYxcg3n2Zalz-55" edge="1">
          <mxGeometry relative="1" as="geometry">
            <mxPoint x="200" y="308" as="sourcePoint" />
            <mxPoint x="420" y="225" as="targetPoint" />
            <Array as="points">
              <mxPoint x="370" y="273" />
            </Array>
          </mxGeometry>
        </mxCell>
        <mxCell id="0_lMvIh6TYxcg3n2Zalz-64" style="edgeStyle=orthogonalEdgeStyle;rounded=0;orthogonalLoop=1;jettySize=auto;html=1;entryX=0;entryY=0.5;entryDx=0;entryDy=0;endArrow=none;endFill=0;exitX=1;exitY=0.3333333333333333;exitDx=0;exitDy=0;exitPerimeter=0;" parent="1" source="0_lMvIh6TYxcg3n2Zalz-47" target="0_lMvIh6TYxcg3n2Zalz-56" edge="1">
          <mxGeometry relative="1" as="geometry">
            <mxPoint x="230" y="305" as="sourcePoint" />
            <mxPoint x="380.0000000000002" y="288" as="targetPoint" />
            <Array as="points">
              <mxPoint x="260" y="273" />
              <mxPoint x="260" y="363" />
            </Array>
          </mxGeometry>
        </mxCell>
        <mxCell id="0_lMvIh6TYxcg3n2Zalz-65" style="edgeStyle=orthogonalEdgeStyle;rounded=0;orthogonalLoop=1;jettySize=auto;html=1;entryX=0;entryY=0.5;entryDx=0;entryDy=0;endArrow=none;endFill=0;exitX=1;exitY=0.3333333333333333;exitDx=0;exitDy=0;exitPerimeter=0;" parent="1" source="0_lMvIh6TYxcg3n2Zalz-47" target="0_lMvIh6TYxcg3n2Zalz-57" edge="1">
          <mxGeometry relative="1" as="geometry">
            <mxPoint x="190" y="295" as="sourcePoint" />
            <mxPoint x="385" y="373" as="targetPoint" />
            <Array as="points">
              <mxPoint x="260" y="273" />
              <mxPoint x="260" y="448" />
            </Array>
          </mxGeometry>
        </mxCell>
        <mxCell id="0_lMvIh6TYxcg3n2Zalz-66" style="edgeStyle=orthogonalEdgeStyle;rounded=0;orthogonalLoop=1;jettySize=auto;html=1;entryX=0;entryY=0.5;entryDx=0;entryDy=0;endArrow=none;endFill=0;exitX=1;exitY=0.3333333333333333;exitDx=0;exitDy=0;exitPerimeter=0;" parent="1" source="0_lMvIh6TYxcg3n2Zalz-47" target="0_lMvIh6TYxcg3n2Zalz-58" edge="1">
          <mxGeometry relative="1" as="geometry">
            <mxPoint x="160" y="283" as="sourcePoint" />
            <mxPoint x="385" y="458" as="targetPoint" />
            <Array as="points">
              <mxPoint x="260" y="273" />
              <mxPoint x="260" y="535" />
            </Array>
          </mxGeometry>
        </mxCell>
        <mxCell id="0_lMvIh6TYxcg3n2Zalz-67" value="&lt;span&gt;Генерация монстров&lt;/span&gt;" style="ellipse;whiteSpace=wrap;html=1;" parent="1" vertex="1">
          <mxGeometry x="275" y="695" width="140" height="70" as="geometry" />
        </mxCell>
        <mxCell id="0_lMvIh6TYxcg3n2Zalz-68" value="Аутентификация игрока" style="ellipse;whiteSpace=wrap;html=1;" parent="1" vertex="1">
          <mxGeometry x="275" y="799" width="140" height="70" as="geometry" />
        </mxCell>
        <mxCell id="0_lMvIh6TYxcg3n2Zalz-69" value="&lt;span&gt;Рассчет итогов боя&lt;/span&gt;" style="ellipse;whiteSpace=wrap;html=1;" parent="1" vertex="1">
          <mxGeometry x="275" y="889" width="140" height="70" as="geometry" />
        </mxCell>
        <mxCell id="0_lMvIh6TYxcg3n2Zalz-74" value="Неявные" style="text;html=1;align=center;verticalAlign=middle;resizable=0;points=[];autosize=1;fontSize=18;fontStyle=1" parent="1" vertex="1">
          <mxGeometry x="90" y="675" width="100" height="30" as="geometry" />
        </mxCell>
        <mxCell id="YBg7GcAQ1qRz5xO-Lc0u-1" value="&lt;span&gt;Генерация предметов в магазине&lt;/span&gt;" style="ellipse;whiteSpace=wrap;html=1;" parent="1" vertex="1">
          <mxGeometry x="275" y="975" width="140" height="70" as="geometry" />
        </mxCell>
        <mxCell id="YBg7GcAQ1qRz5xO-Lc0u-2" value="&lt;span&gt;Генерация предметов в магазине&lt;/span&gt;" style="ellipse;whiteSpace=wrap;html=1;" parent="1" vertex="1">
          <mxGeometry x="275" y="1065" width="140" height="70" as="geometry" />
        </mxCell>
        <mxCell id="YBg7GcAQ1qRz5xO-Lc0u-4" style="edgeStyle=orthogonalEdgeStyle;rounded=0;orthogonalLoop=1;jettySize=auto;html=1;endArrow=none;endFill=0;" parent="1" source="0_lMvIh6TYxcg3n2Zalz-51" target="YBg7GcAQ1qRz5xO-Lc0u-1" edge="1">
          <mxGeometry relative="1" as="geometry">
            <mxPoint x="210" y="815" as="sourcePoint" />
            <mxPoint x="285" y="934" as="targetPoint" />
            <Array as="points">
              <mxPoint x="210" y="815" />
              <mxPoint x="210" y="1005" />
            </Array>
          </mxGeometry>
        </mxCell>
        <mxCell id="YBg7GcAQ1qRz5xO-Lc0u-5" style="edgeStyle=orthogonalEdgeStyle;rounded=0;orthogonalLoop=1;jettySize=auto;html=1;endArrow=none;endFill=0;" parent="1" source="0_lMvIh6TYxcg3n2Zalz-51" target="YBg7GcAQ1qRz5xO-Lc0u-2" edge="1">
          <mxGeometry relative="1" as="geometry">
            <mxPoint x="155" y="829" as="sourcePoint" />
            <mxPoint x="275.71796769724483" y="1019" as="targetPoint" />
            <Array as="points">
              <mxPoint x="210" y="815" />
              <mxPoint x="210" y="1095" />
            </Array>
          </mxGeometry>
        </mxCell>
      </root>
    </mxGraphModel>
  </diagram>
  <diagram id="AdqHd5VBMW3q9g3k3zA5" name="Шаг 2. Конкретизация вариантов использования ">
    <mxGraphModel dx="1422" dy="791" grid="1" gridSize="10" guides="1" tooltips="1" connect="1" arrows="1" fold="1" page="1" pageScale="1" pageWidth="827" pageHeight="1169" math="0" shadow="0">
      <root>
        <mxCell id="jtFq3MM74R0vR7Oora5y-0" />
        <mxCell id="jtFq3MM74R0vR7Oora5y-1" parent="jtFq3MM74R0vR7Oora5y-0" />
        <mxCell id="8HN2TSjgCMqWPnxrD_QB-123" value="2 шаг: конкретизируем прецеденты" style="text;html=1;align=center;verticalAlign=middle;resizable=0;points=[];autosize=1;fontSize=18;fontStyle=1" parent="jtFq3MM74R0vR7Oora5y-1" vertex="1">
          <mxGeometry x="590" y="1210" width="330" height="30" as="geometry" />
        </mxCell>
        <mxCell id="t6Ct34FlyJ7RqbLaG_36-0" style="edgeStyle=orthogonalEdgeStyle;rounded=0;orthogonalLoop=1;jettySize=auto;html=1;exitX=1;exitY=0.3333333333333333;exitDx=0;exitDy=0;exitPerimeter=0;entryX=0;entryY=0.5;entryDx=0;entryDy=0;endArrow=none;endFill=0;" parent="jtFq3MM74R0vR7Oora5y-1" source="t6Ct34FlyJ7RqbLaG_36-1" target="t6Ct34FlyJ7RqbLaG_36-8" edge="1">
          <mxGeometry relative="1" as="geometry" />
        </mxCell>
        <mxCell id="t6Ct34FlyJ7RqbLaG_36-1" value="Игрок" style="shape=umlActor;verticalLabelPosition=bottom;verticalAlign=top;html=1;outlineConnect=0;" parent="jtFq3MM74R0vR7Oora5y-1" vertex="1">
          <mxGeometry x="750" y="1406.93" width="30" height="60" as="geometry" />
        </mxCell>
        <mxCell id="t6Ct34FlyJ7RqbLaG_36-6" value="&lt;b&gt;&lt;font style=&quot;font-size: 18px&quot;&gt;Явные&lt;/font&gt;&lt;/b&gt;" style="text;html=1;align=center;verticalAlign=middle;resizable=0;points=[];autosize=1;" parent="jtFq3MM74R0vR7Oora5y-1" vertex="1">
          <mxGeometry x="720" y="1341.93" width="80" height="20" as="geometry" />
        </mxCell>
        <mxCell id="t6Ct34FlyJ7RqbLaG_36-8" value="&lt;span&gt;Выбрать класс&lt;/span&gt;" style="ellipse;whiteSpace=wrap;html=1;" parent="jtFq3MM74R0vR7Oora5y-1" vertex="1">
          <mxGeometry x="1000" y="1203.93" width="140" height="70" as="geometry" />
        </mxCell>
        <mxCell id="t6Ct34FlyJ7RqbLaG_36-9" value="&lt;span&gt;Сохранить прогресс&lt;/span&gt;" style="ellipse;whiteSpace=wrap;html=1;" parent="jtFq3MM74R0vR7Oora5y-1" vertex="1">
          <mxGeometry x="1000" y="1396.93" width="140" height="70" as="geometry" />
        </mxCell>
        <mxCell id="t6Ct34FlyJ7RqbLaG_36-10" value="&lt;span&gt;Посмотреть статус&lt;/span&gt;" style="ellipse;whiteSpace=wrap;html=1;" parent="jtFq3MM74R0vR7Oora5y-1" vertex="1">
          <mxGeometry x="1005" y="1481.93" width="140" height="70" as="geometry" />
        </mxCell>
        <mxCell id="t6Ct34FlyJ7RqbLaG_36-11" value="&lt;span&gt;Посмотреть инвентарь&lt;/span&gt;" style="ellipse;whiteSpace=wrap;html=1;" parent="jtFq3MM74R0vR7Oora5y-1" vertex="1">
          <mxGeometry x="1005" y="1566.93" width="140" height="70" as="geometry" />
        </mxCell>
        <mxCell id="t6Ct34FlyJ7RqbLaG_36-12" value="&lt;span&gt;Зайти в магазин&lt;/span&gt;" style="ellipse;whiteSpace=wrap;html=1;" parent="jtFq3MM74R0vR7Oora5y-1" vertex="1">
          <mxGeometry x="1005" y="1653.93" width="140" height="70" as="geometry" />
        </mxCell>
        <mxCell id="t6Ct34FlyJ7RqbLaG_36-13" style="edgeStyle=orthogonalEdgeStyle;rounded=0;orthogonalLoop=1;jettySize=auto;html=1;endArrow=none;endFill=0;" parent="jtFq3MM74R0vR7Oora5y-1" source="t6Ct34FlyJ7RqbLaG_36-14" edge="1">
          <mxGeometry relative="1" as="geometry">
            <mxPoint x="890" y="1678.93" as="targetPoint" />
          </mxGeometry>
        </mxCell>
        <mxCell id="t6Ct34FlyJ7RqbLaG_36-14" value="&lt;span&gt;Выполнить квест&lt;/span&gt;" style="ellipse;whiteSpace=wrap;html=1;" parent="jtFq3MM74R0vR7Oora5y-1" vertex="1">
          <mxGeometry x="1005" y="1748.93" width="140" height="70" as="geometry" />
        </mxCell>
        <mxCell id="t6Ct34FlyJ7RqbLaG_36-15" value="Выбрать сторону" style="ellipse;whiteSpace=wrap;html=1;" parent="jtFq3MM74R0vR7Oora5y-1" vertex="1">
          <mxGeometry x="1000" y="1308.93" width="140" height="70" as="geometry" />
        </mxCell>
        <mxCell id="t6Ct34FlyJ7RqbLaG_36-16" style="edgeStyle=orthogonalEdgeStyle;rounded=0;orthogonalLoop=1;jettySize=auto;html=1;exitX=1;exitY=0.3333333333333333;exitDx=0;exitDy=0;exitPerimeter=0;entryX=0;entryY=0.5;entryDx=0;entryDy=0;endArrow=none;endFill=0;" parent="jtFq3MM74R0vR7Oora5y-1" source="t6Ct34FlyJ7RqbLaG_36-1" target="t6Ct34FlyJ7RqbLaG_36-15" edge="1">
          <mxGeometry relative="1" as="geometry">
            <mxPoint x="850" y="1438.9299999999998" as="sourcePoint" />
            <mxPoint x="1010.000000000003" y="1248.9299999999998" as="targetPoint" />
          </mxGeometry>
        </mxCell>
        <mxCell id="t6Ct34FlyJ7RqbLaG_36-17" style="edgeStyle=orthogonalEdgeStyle;rounded=0;orthogonalLoop=1;jettySize=auto;html=1;exitX=1;exitY=0.3333333333333333;exitDx=0;exitDy=0;exitPerimeter=0;entryX=0;entryY=0.5;entryDx=0;entryDy=0;endArrow=none;endFill=0;" parent="jtFq3MM74R0vR7Oora5y-1" source="t6Ct34FlyJ7RqbLaG_36-1" target="t6Ct34FlyJ7RqbLaG_36-9" edge="1">
          <mxGeometry relative="1" as="geometry">
            <mxPoint x="830" y="1461.93" as="sourcePoint" />
            <mxPoint x="1050" y="1378.93" as="targetPoint" />
            <Array as="points">
              <mxPoint x="1000" y="1426.93" />
            </Array>
          </mxGeometry>
        </mxCell>
        <mxCell id="t6Ct34FlyJ7RqbLaG_36-18" style="edgeStyle=orthogonalEdgeStyle;rounded=0;orthogonalLoop=1;jettySize=auto;html=1;entryX=0;entryY=0.5;entryDx=0;entryDy=0;endArrow=none;endFill=0;exitX=1;exitY=0.3333333333333333;exitDx=0;exitDy=0;exitPerimeter=0;" parent="jtFq3MM74R0vR7Oora5y-1" source="t6Ct34FlyJ7RqbLaG_36-1" target="t6Ct34FlyJ7RqbLaG_36-10" edge="1">
          <mxGeometry relative="1" as="geometry">
            <mxPoint x="860" y="1458.93" as="sourcePoint" />
            <mxPoint x="1010.0000000000002" y="1441.93" as="targetPoint" />
            <Array as="points">
              <mxPoint x="890" y="1426.93" />
              <mxPoint x="890" y="1516.93" />
            </Array>
          </mxGeometry>
        </mxCell>
        <mxCell id="t6Ct34FlyJ7RqbLaG_36-19" style="edgeStyle=orthogonalEdgeStyle;rounded=0;orthogonalLoop=1;jettySize=auto;html=1;entryX=0;entryY=0.5;entryDx=0;entryDy=0;endArrow=none;endFill=0;exitX=1;exitY=0.3333333333333333;exitDx=0;exitDy=0;exitPerimeter=0;" parent="jtFq3MM74R0vR7Oora5y-1" source="t6Ct34FlyJ7RqbLaG_36-1" target="t6Ct34FlyJ7RqbLaG_36-11" edge="1">
          <mxGeometry relative="1" as="geometry">
            <mxPoint x="820" y="1448.93" as="sourcePoint" />
            <mxPoint x="1015" y="1526.93" as="targetPoint" />
            <Array as="points">
              <mxPoint x="890" y="1426.93" />
              <mxPoint x="890" y="1601.93" />
            </Array>
          </mxGeometry>
        </mxCell>
        <mxCell id="t6Ct34FlyJ7RqbLaG_36-20" style="edgeStyle=orthogonalEdgeStyle;rounded=0;orthogonalLoop=1;jettySize=auto;html=1;entryX=0;entryY=0.5;entryDx=0;entryDy=0;endArrow=none;endFill=0;exitX=1;exitY=0.3333333333333333;exitDx=0;exitDy=0;exitPerimeter=0;" parent="jtFq3MM74R0vR7Oora5y-1" source="t6Ct34FlyJ7RqbLaG_36-1" target="t6Ct34FlyJ7RqbLaG_36-12" edge="1">
          <mxGeometry relative="1" as="geometry">
            <mxPoint x="790" y="1436.93" as="sourcePoint" />
            <mxPoint x="1015" y="1611.93" as="targetPoint" />
            <Array as="points">
              <mxPoint x="890" y="1426.93" />
              <mxPoint x="890" y="1688.93" />
            </Array>
          </mxGeometry>
        </mxCell>
        <mxCell id="t6Ct34FlyJ7RqbLaG_36-30" value="extends" style="html=1;verticalAlign=bottom;endArrow=open;dashed=1;endSize=8;" parent="jtFq3MM74R0vR7Oora5y-1" source="ppFEvQlltFYaHWOEh1ws-2" target="t6Ct34FlyJ7RqbLaG_36-8" edge="1">
          <mxGeometry relative="1" as="geometry">
            <mxPoint x="1200" y="1008.9999999999998" as="sourcePoint" />
            <mxPoint x="1070" y="1220.9999999999998" as="targetPoint" />
          </mxGeometry>
        </mxCell>
        <mxCell id="ppFEvQlltFYaHWOEh1ws-0" value="&lt;span&gt;Лучник&lt;/span&gt;" style="ellipse;whiteSpace=wrap;html=1;" parent="jtFq3MM74R0vR7Oora5y-1" vertex="1">
          <mxGeometry x="1200" y="1150" width="140" height="70" as="geometry" />
        </mxCell>
        <mxCell id="ppFEvQlltFYaHWOEh1ws-1" value="&lt;span&gt;Страж&lt;/span&gt;" style="ellipse;whiteSpace=wrap;html=1;" parent="jtFq3MM74R0vR7Oora5y-1" vertex="1">
          <mxGeometry x="1200" y="1220" width="140" height="70" as="geometry" />
        </mxCell>
        <mxCell id="ppFEvQlltFYaHWOEh1ws-2" value="&lt;span&gt;Воин&lt;/span&gt;" style="ellipse;whiteSpace=wrap;html=1;" parent="jtFq3MM74R0vR7Oora5y-1" vertex="1">
          <mxGeometry x="1200" y="1080" width="140" height="70" as="geometry" />
        </mxCell>
        <mxCell id="ppFEvQlltFYaHWOEh1ws-3" value="extends" style="html=1;verticalAlign=bottom;endArrow=open;dashed=1;endSize=8;" parent="jtFq3MM74R0vR7Oora5y-1" source="ppFEvQlltFYaHWOEh1ws-0" target="t6Ct34FlyJ7RqbLaG_36-8" edge="1">
          <mxGeometry relative="1" as="geometry">
            <mxPoint x="1440" y="1279.93" as="sourcePoint" />
            <mxPoint x="1310" y="1491.9299999999998" as="targetPoint" />
          </mxGeometry>
        </mxCell>
        <mxCell id="ppFEvQlltFYaHWOEh1ws-4" value="extends" style="html=1;verticalAlign=bottom;endArrow=open;dashed=1;endSize=8;" parent="jtFq3MM74R0vR7Oora5y-1" source="ppFEvQlltFYaHWOEh1ws-1" target="t6Ct34FlyJ7RqbLaG_36-8" edge="1">
          <mxGeometry relative="1" as="geometry">
            <mxPoint x="1450" y="1289.93" as="sourcePoint" />
            <mxPoint x="1320" y="1501.9299999999998" as="targetPoint" />
          </mxGeometry>
        </mxCell>
        <mxCell id="ppFEvQlltFYaHWOEh1ws-5" value="&lt;span&gt;Герой&lt;/span&gt;" style="ellipse;whiteSpace=wrap;html=1;" parent="jtFq3MM74R0vR7Oora5y-1" vertex="1">
          <mxGeometry x="1310" y="1280" width="140" height="70" as="geometry" />
        </mxCell>
        <mxCell id="ppFEvQlltFYaHWOEh1ws-6" value="&lt;span&gt;Злодей&lt;/span&gt;" style="ellipse;whiteSpace=wrap;html=1;" parent="jtFq3MM74R0vR7Oora5y-1" vertex="1">
          <mxGeometry x="1310" y="1350" width="140" height="70" as="geometry" />
        </mxCell>
        <mxCell id="ppFEvQlltFYaHWOEh1ws-7" value="extends" style="html=1;verticalAlign=bottom;endArrow=open;dashed=1;endSize=8;" parent="jtFq3MM74R0vR7Oora5y-1" source="ppFEvQlltFYaHWOEh1ws-5" target="t6Ct34FlyJ7RqbLaG_36-15" edge="1">
          <mxGeometry relative="1" as="geometry">
            <mxPoint x="1210.8655130074771" y="1259.5131359529746" as="sourcePoint" />
            <mxPoint x="1149.135658379259" y="1254.4131729059416" as="targetPoint" />
          </mxGeometry>
        </mxCell>
        <mxCell id="ppFEvQlltFYaHWOEh1ws-8" value="extends" style="html=1;verticalAlign=bottom;endArrow=open;dashed=1;endSize=8;" parent="jtFq3MM74R0vR7Oora5y-1" source="ppFEvQlltFYaHWOEh1ws-6" target="t6Ct34FlyJ7RqbLaG_36-15" edge="1">
          <mxGeometry relative="1" as="geometry">
            <mxPoint x="1220.8655130074771" y="1269.5131359529746" as="sourcePoint" />
            <mxPoint x="1159.135658379259" y="1264.4131729059416" as="targetPoint" />
          </mxGeometry>
        </mxCell>
        <mxCell id="ppFEvQlltFYaHWOEh1ws-9" value="extends" style="html=1;verticalAlign=bottom;endArrow=open;dashed=1;endSize=8;" parent="jtFq3MM74R0vR7Oora5y-1" source="t6Ct34FlyJ7RqbLaG_36-15" target="t6Ct34FlyJ7RqbLaG_36-8" edge="1">
          <mxGeometry relative="1" as="geometry">
            <mxPoint x="1322.287322858605" y="1386.1259739358857" as="sourcePoint" />
            <mxPoint x="1147.7010733469415" y="1362.826132132449" as="targetPoint" />
          </mxGeometry>
        </mxCell>
        <mxCell id="ppFEvQlltFYaHWOEh1ws-10" value="&lt;span&gt;Призыватель&lt;/span&gt;" style="ellipse;whiteSpace=wrap;html=1;" parent="jtFq3MM74R0vR7Oora5y-1" vertex="1">
          <mxGeometry x="990" y="970" width="140" height="70" as="geometry" />
        </mxCell>
        <mxCell id="ppFEvQlltFYaHWOEh1ws-11" value="&lt;span&gt;Мать элементов&lt;/span&gt;" style="ellipse;whiteSpace=wrap;html=1;" parent="jtFq3MM74R0vR7Oora5y-1" vertex="1">
          <mxGeometry x="910" y="1050" width="140" height="70" as="geometry" />
        </mxCell>
        <mxCell id="ppFEvQlltFYaHWOEh1ws-12" value="&lt;span&gt;Некромант&lt;/span&gt;" style="ellipse;whiteSpace=wrap;html=1;" parent="jtFq3MM74R0vR7Oora5y-1" vertex="1">
          <mxGeometry x="1070" y="1050" width="140" height="70" as="geometry" />
        </mxCell>
        <mxCell id="ppFEvQlltFYaHWOEh1ws-13" value="extends" style="html=1;verticalAlign=bottom;endArrow=open;dashed=1;endSize=8;" parent="jtFq3MM74R0vR7Oora5y-1" source="ppFEvQlltFYaHWOEh1ws-11" target="t6Ct34FlyJ7RqbLaG_36-8" edge="1">
          <mxGeometry relative="1" as="geometry">
            <mxPoint x="1236.1141180860784" y="1152.2673310421055" as="sourcePoint" />
            <mxPoint x="1124.0656034761032" y="1221.7352275690334" as="targetPoint" />
          </mxGeometry>
        </mxCell>
        <mxCell id="ppFEvQlltFYaHWOEh1ws-14" value="extends" style="html=1;verticalAlign=bottom;endArrow=open;dashed=1;endSize=8;" parent="jtFq3MM74R0vR7Oora5y-1" source="ppFEvQlltFYaHWOEh1ws-10" target="t6Ct34FlyJ7RqbLaG_36-8" edge="1">
          <mxGeometry relative="1" as="geometry">
            <mxPoint x="1236.1141180860784" y="1152.2673310421055" as="sourcePoint" />
            <mxPoint x="1124.0656034761032" y="1221.7352275690334" as="targetPoint" />
          </mxGeometry>
        </mxCell>
        <mxCell id="ppFEvQlltFYaHWOEh1ws-15" value="extends" style="html=1;verticalAlign=bottom;endArrow=open;dashed=1;endSize=8;" parent="jtFq3MM74R0vR7Oora5y-1" source="ppFEvQlltFYaHWOEh1ws-12" target="t6Ct34FlyJ7RqbLaG_36-8" edge="1">
          <mxGeometry relative="1" as="geometry">
            <mxPoint x="1071.4077612080625" y="1049.9929214575593" as="sourcePoint" />
            <mxPoint x="1078.545546334977" y="1213.9375559415118" as="targetPoint" />
          </mxGeometry>
        </mxCell>
        <mxCell id="cpD11eOB4GXsR9ZfiKTE-0" value="Отображение характеристик" style="ellipse;whiteSpace=wrap;html=1;" parent="jtFq3MM74R0vR7Oora5y-1" vertex="1">
          <mxGeometry x="1310" y="1430" width="140" height="70" as="geometry" />
        </mxCell>
        <mxCell id="cpD11eOB4GXsR9ZfiKTE-1" value="&lt;span&gt;Количество золота&lt;/span&gt;" style="ellipse;whiteSpace=wrap;html=1;" parent="jtFq3MM74R0vR7Oora5y-1" vertex="1">
          <mxGeometry x="1310" y="1500" width="140" height="70" as="geometry" />
        </mxCell>
        <mxCell id="cpD11eOB4GXsR9ZfiKTE-2" value="&lt;span&gt;Количество опыта и уровень&lt;/span&gt;" style="ellipse;whiteSpace=wrap;html=1;" parent="jtFq3MM74R0vR7Oora5y-1" vertex="1">
          <mxGeometry x="1310" y="1570" width="140" height="70" as="geometry" />
        </mxCell>
        <mxCell id="cpD11eOB4GXsR9ZfiKTE-3" value="extends" style="html=1;verticalAlign=bottom;endArrow=open;dashed=1;endSize=8;" parent="jtFq3MM74R0vR7Oora5y-1" source="cpD11eOB4GXsR9ZfiKTE-0" target="t6Ct34FlyJ7RqbLaG_36-10" edge="1">
          <mxGeometry relative="1" as="geometry">
            <mxPoint x="1314.587322858605" y="1453.2959739358857" as="sourcePoint" />
            <mxPoint x="1140.0010733469414" y="1429.996132132449" as="targetPoint" />
          </mxGeometry>
        </mxCell>
        <mxCell id="cpD11eOB4GXsR9ZfiKTE-4" value="extends" style="html=1;verticalAlign=bottom;endArrow=open;dashed=1;endSize=8;" parent="jtFq3MM74R0vR7Oora5y-1" source="cpD11eOB4GXsR9ZfiKTE-1" target="t6Ct34FlyJ7RqbLaG_36-10" edge="1">
          <mxGeometry relative="1" as="geometry">
            <mxPoint x="1309.997322858605" y="1523.2959739358857" as="sourcePoint" />
            <mxPoint x="1135.4110733469415" y="1499.996132132449" as="targetPoint" />
          </mxGeometry>
        </mxCell>
        <mxCell id="cpD11eOB4GXsR9ZfiKTE-5" value="extends" style="html=1;verticalAlign=bottom;endArrow=open;dashed=1;endSize=8;" parent="jtFq3MM74R0vR7Oora5y-1" source="cpD11eOB4GXsR9ZfiKTE-2" target="t6Ct34FlyJ7RqbLaG_36-10" edge="1">
          <mxGeometry relative="1" as="geometry">
            <mxPoint x="1294.587322858605" y="1583.2959739358857" as="sourcePoint" />
            <mxPoint x="1120.0010733469414" y="1559.996132132449" as="targetPoint" />
          </mxGeometry>
        </mxCell>
        <mxCell id="cpD11eOB4GXsR9ZfiKTE-6" value="&lt;span&gt;Предметы&lt;/span&gt;" style="ellipse;whiteSpace=wrap;html=1;" parent="jtFq3MM74R0vR7Oora5y-1" vertex="1">
          <mxGeometry x="1310" y="1650" width="140" height="70" as="geometry" />
        </mxCell>
        <mxCell id="cpD11eOB4GXsR9ZfiKTE-7" value="extends" style="html=1;verticalAlign=bottom;endArrow=open;dashed=1;endSize=8;" parent="jtFq3MM74R0vR7Oora5y-1" source="cpD11eOB4GXsR9ZfiKTE-6" target="t6Ct34FlyJ7RqbLaG_36-11" edge="1">
          <mxGeometry relative="1" as="geometry">
            <mxPoint x="1339.9999024523272" y="1783.1545481642302" as="sourcePoint" />
            <mxPoint x="1156.342339752753" y="1729.9987492049768" as="targetPoint" />
          </mxGeometry>
        </mxCell>
        <mxCell id="cpD11eOB4GXsR9ZfiKTE-8" value="&lt;span&gt;Предметы&lt;/span&gt;" style="ellipse;whiteSpace=wrap;html=1;" parent="jtFq3MM74R0vR7Oora5y-1" vertex="1">
          <mxGeometry x="1310" y="1720" width="140" height="70" as="geometry" />
        </mxCell>
        <mxCell id="cpD11eOB4GXsR9ZfiKTE-9" value="extends" style="html=1;verticalAlign=bottom;endArrow=open;dashed=1;endSize=8;" parent="jtFq3MM74R0vR7Oora5y-1" source="cpD11eOB4GXsR9ZfiKTE-8" target="t6Ct34FlyJ7RqbLaG_36-12" edge="1">
          <mxGeometry relative="1" as="geometry">
            <mxPoint x="1321.9874095860782" y="1769.6468026069788" as="sourcePoint" />
            <mxPoint x="1139.9964052688542" y="1720.0012864983319" as="targetPoint" />
          </mxGeometry>
        </mxCell>
        <mxCell id="KmyIA9HvdsKp4OtlJ-q0-0" value="&lt;span&gt;Сразиться с монстром&lt;/span&gt;" style="ellipse;whiteSpace=wrap;html=1;" parent="jtFq3MM74R0vR7Oora5y-1" vertex="1">
          <mxGeometry x="1310" y="1790" width="140" height="70" as="geometry" />
        </mxCell>
        <mxCell id="KmyIA9HvdsKp4OtlJ-q0-1" value="&lt;span&gt;Получить награду&lt;/span&gt;" style="ellipse;whiteSpace=wrap;html=1;" parent="jtFq3MM74R0vR7Oora5y-1" vertex="1">
          <mxGeometry x="1490" y="1630" width="140" height="70" as="geometry" />
        </mxCell>
        <mxCell id="KmyIA9HvdsKp4OtlJ-q0-2" value="extends" style="html=1;verticalAlign=bottom;endArrow=open;dashed=1;endSize=8;" parent="jtFq3MM74R0vR7Oora5y-1" source="KmyIA9HvdsKp4OtlJ-q0-0" target="t6Ct34FlyJ7RqbLaG_36-14" edge="1">
          <mxGeometry relative="1" as="geometry">
            <mxPoint x="1316.3784766881936" y="1868.4294720676635" as="sourcePoint" />
            <mxPoint x="1140.0000107752708" y="1830.0022873838257" as="targetPoint" />
          </mxGeometry>
        </mxCell>
        <mxCell id="KmyIA9HvdsKp4OtlJ-q0-3" value="extends" style="html=1;verticalAlign=bottom;endArrow=open;dashed=1;endSize=8;" parent="jtFq3MM74R0vR7Oora5y-1" source="KmyIA9HvdsKp4OtlJ-q0-1" target="KmyIA9HvdsKp4OtlJ-q0-4" edge="1">
          <mxGeometry relative="1" as="geometry">
            <mxPoint x="1289.746622861283" y="1882.9973391035437" as="sourcePoint" />
            <mxPoint x="1120.001363849131" y="1859.9977159889118" as="targetPoint" />
          </mxGeometry>
        </mxCell>
        <mxCell id="KmyIA9HvdsKp4OtlJ-q0-4" value="&lt;span&gt;Победа&lt;/span&gt;" style="ellipse;whiteSpace=wrap;html=1;" parent="jtFq3MM74R0vR7Oora5y-1" vertex="1">
          <mxGeometry x="1490" y="1740" width="140" height="70" as="geometry" />
        </mxCell>
        <mxCell id="KmyIA9HvdsKp4OtlJ-q0-5" value="&lt;span&gt;Поражение&lt;/span&gt;" style="ellipse;whiteSpace=wrap;html=1;" parent="jtFq3MM74R0vR7Oora5y-1" vertex="1">
          <mxGeometry x="1490" y="1830" width="140" height="70" as="geometry" />
        </mxCell>
        <mxCell id="KmyIA9HvdsKp4OtlJ-q0-6" value="extends" style="html=1;verticalAlign=bottom;endArrow=open;dashed=1;endSize=8;" parent="jtFq3MM74R0vR7Oora5y-1" source="KmyIA9HvdsKp4OtlJ-q0-4" target="KmyIA9HvdsKp4OtlJ-q0-0" edge="1">
          <mxGeometry relative="1" as="geometry">
            <mxPoint x="1314.746622861283" y="2052.9973391035437" as="sourcePoint" />
            <mxPoint x="1145.001363849131" y="2029.9977159889118" as="targetPoint" />
          </mxGeometry>
        </mxCell>
        <mxCell id="KmyIA9HvdsKp4OtlJ-q0-7" value="extends" style="html=1;verticalAlign=bottom;endArrow=open;dashed=1;endSize=8;" parent="jtFq3MM74R0vR7Oora5y-1" source="KmyIA9HvdsKp4OtlJ-q0-5" target="KmyIA9HvdsKp4OtlJ-q0-0" edge="1">
          <mxGeometry relative="1" as="geometry">
            <mxPoint x="1508.5746263939468" y="1801.784840462119" as="sourcePoint" />
            <mxPoint x="1451.290437881878" y="1818.092292998103" as="targetPoint" />
          </mxGeometry>
        </mxCell>
      </root>
    </mxGraphModel>
  </diagram>
  <diagram id="xDfH9qHua5OwzpGXt8e5" name="Шаг 3. Создаем концептуальную схему ">
    <mxGraphModel dx="1422" dy="791" grid="1" gridSize="10" guides="1" tooltips="1" connect="1" arrows="1" fold="1" page="1" pageScale="1" pageWidth="827" pageHeight="1169" math="0" shadow="0">
      <root>
        <mxCell id="YZooqlN7icjInVOoK6Rc-0" />
        <mxCell id="YZooqlN7icjInVOoK6Rc-1" parent="YZooqlN7icjInVOoK6Rc-0" />
        <mxCell id="YZooqlN7icjInVOoK6Rc-2" value="Игрок" style="html=1;" parent="YZooqlN7icjInVOoK6Rc-1" vertex="1">
          <mxGeometry x="370" y="20" width="110" height="50" as="geometry" />
        </mxCell>
        <mxCell id="r74G87xnTTuVejgpiLVM-0" value="Класс" style="html=1;" parent="YZooqlN7icjInVOoK6Rc-1" vertex="1">
          <mxGeometry x="270" y="260" width="110" height="50" as="geometry" />
        </mxCell>
        <mxCell id="r74G87xnTTuVejgpiLVM-2" value="Сторона силы" style="html=1;" parent="YZooqlN7icjInVOoK6Rc-1" vertex="1">
          <mxGeometry x="470" y="260" width="110" height="50" as="geometry" />
        </mxCell>
        <mxCell id="r74G87xnTTuVejgpiLVM-5" value="Персонаж" style="html=1;" parent="YZooqlN7icjInVOoK6Rc-1" vertex="1">
          <mxGeometry x="370" y="140" width="110" height="50" as="geometry" />
        </mxCell>
        <mxCell id="r74G87xnTTuVejgpiLVM-9" value="1" style="endArrow=open;html=1;endSize=12;startArrow=diamondThin;startSize=14;startFill=1;edgeStyle=orthogonalEdgeStyle;align=left;verticalAlign=bottom;exitX=0.5;exitY=1;exitDx=0;exitDy=0;entryX=0.5;entryY=0;entryDx=0;entryDy=0;" parent="YZooqlN7icjInVOoK6Rc-1" source="YZooqlN7icjInVOoK6Rc-2" target="r74G87xnTTuVejgpiLVM-5" edge="1">
          <mxGeometry x="-0.7143" y="15" relative="1" as="geometry">
            <mxPoint x="540" y="130" as="sourcePoint" />
            <mxPoint x="700" y="130" as="targetPoint" />
            <mxPoint as="offset" />
          </mxGeometry>
        </mxCell>
        <mxCell id="r74G87xnTTuVejgpiLVM-10" value="1" style="edgeLabel;html=1;align=center;verticalAlign=middle;resizable=0;points=[];" parent="r74G87xnTTuVejgpiLVM-9" vertex="1" connectable="0">
          <mxGeometry x="0.6272" y="1" relative="1" as="geometry">
            <mxPoint x="14" as="offset" />
          </mxGeometry>
        </mxCell>
        <mxCell id="r74G87xnTTuVejgpiLVM-11" value="1" style="endArrow=open;html=1;endSize=12;startArrow=diamondThin;startSize=14;startFill=0;edgeStyle=orthogonalEdgeStyle;align=left;verticalAlign=bottom;exitX=0;exitY=0.5;exitDx=0;exitDy=0;entryX=0.5;entryY=0;entryDx=0;entryDy=0;" parent="YZooqlN7icjInVOoK6Rc-1" source="r74G87xnTTuVejgpiLVM-5" target="r74G87xnTTuVejgpiLVM-0" edge="1">
          <mxGeometry x="-0.5714" relative="1" as="geometry">
            <mxPoint x="430" y="290" as="sourcePoint" />
            <mxPoint x="590" y="290" as="targetPoint" />
            <mxPoint as="offset" />
            <Array as="points">
              <mxPoint x="325" y="165" />
            </Array>
          </mxGeometry>
        </mxCell>
        <mxCell id="r74G87xnTTuVejgpiLVM-12" value="0..*" style="edgeLabel;html=1;align=center;verticalAlign=middle;resizable=0;points=[];" parent="r74G87xnTTuVejgpiLVM-11" vertex="1" connectable="0">
          <mxGeometry x="-0.7647" y="-8" relative="1" as="geometry">
            <mxPoint x="-43.66999999999999" y="73" as="offset" />
          </mxGeometry>
        </mxCell>
        <mxCell id="r74G87xnTTuVejgpiLVM-24" value="1" style="endArrow=open;html=1;endSize=12;startArrow=diamondThin;startSize=14;startFill=0;edgeStyle=orthogonalEdgeStyle;align=left;verticalAlign=bottom;exitX=1;exitY=0.5;exitDx=0;exitDy=0;" parent="YZooqlN7icjInVOoK6Rc-1" source="r74G87xnTTuVejgpiLVM-5" target="r74G87xnTTuVejgpiLVM-2" edge="1">
          <mxGeometry x="-0.5429" relative="1" as="geometry">
            <mxPoint x="440.5" y="190" as="sourcePoint" />
            <mxPoint x="658" y="247.5" as="targetPoint" />
            <Array as="points">
              <mxPoint x="525" y="165" />
            </Array>
            <mxPoint as="offset" />
          </mxGeometry>
        </mxCell>
        <mxCell id="r74G87xnTTuVejgpiLVM-25" value="0..*" style="edgeLabel;html=1;align=center;verticalAlign=middle;resizable=0;points=[];" parent="r74G87xnTTuVejgpiLVM-24" vertex="1" connectable="0">
          <mxGeometry x="0.7001" y="6" relative="1" as="geometry">
            <mxPoint x="13.99" as="offset" />
          </mxGeometry>
        </mxCell>
        <mxCell id="wd31eeBn9Fop62qYva0O-0" value="Бой" style="html=1;" parent="YZooqlN7icjInVOoK6Rc-1" vertex="1">
          <mxGeometry x="140" y="260" width="110" height="50" as="geometry" />
        </mxCell>
        <mxCell id="wd31eeBn9Fop62qYva0O-1" value="Extends" style="endArrow=block;endSize=16;endFill=0;html=1;" parent="YZooqlN7icjInVOoK6Rc-1" source="r74G87xnTTuVejgpiLVM-2" target="r74G87xnTTuVejgpiLVM-0" edge="1">
          <mxGeometry width="160" relative="1" as="geometry">
            <mxPoint x="575" y="390.0000000000001" as="sourcePoint" />
            <mxPoint x="432" y="320.0000000000001" as="targetPoint" />
          </mxGeometry>
        </mxCell>
        <mxCell id="P-jC_-5i-dQlqOPkeni3-0" value="Монстр" style="html=1;" parent="YZooqlN7icjInVOoK6Rc-1" vertex="1">
          <mxGeometry x="140" y="360" width="110" height="50" as="geometry" />
        </mxCell>
        <mxCell id="P-jC_-5i-dQlqOPkeni3-2" value="Extends" style="endArrow=block;endSize=16;endFill=0;html=1;" parent="YZooqlN7icjInVOoK6Rc-1" source="P-jC_-5i-dQlqOPkeni3-0" target="wd31eeBn9Fop62qYva0O-0" edge="1">
          <mxGeometry width="160" relative="1" as="geometry">
            <mxPoint x="410" y="384.76" as="sourcePoint" />
            <mxPoint x="319.9999999999998" y="384.76" as="targetPoint" />
          </mxGeometry>
        </mxCell>
        <mxCell id="P-jC_-5i-dQlqOPkeni3-7" value="1" style="endArrow=open;html=1;endSize=12;startArrow=diamondThin;startSize=14;startFill=1;edgeStyle=orthogonalEdgeStyle;align=left;verticalAlign=bottom;exitX=0;exitY=0;exitDx=0;exitDy=0;" parent="YZooqlN7icjInVOoK6Rc-1" source="r74G87xnTTuVejgpiLVM-5" target="wd31eeBn9Fop62qYva0O-0" edge="1">
          <mxGeometry x="-0.7966" relative="1" as="geometry">
            <mxPoint x="435" y="80" as="sourcePoint" />
            <mxPoint x="435" y="150" as="targetPoint" />
            <mxPoint as="offset" />
            <Array as="points">
              <mxPoint x="195" y="140" />
            </Array>
          </mxGeometry>
        </mxCell>
        <mxCell id="P-jC_-5i-dQlqOPkeni3-8" value="0..*" style="edgeLabel;html=1;align=center;verticalAlign=middle;resizable=0;points=[];" parent="P-jC_-5i-dQlqOPkeni3-7" vertex="1" connectable="0">
          <mxGeometry x="0.6272" y="1" relative="1" as="geometry">
            <mxPoint x="14" y="35" as="offset" />
          </mxGeometry>
        </mxCell>
        <mxCell id="P-jC_-5i-dQlqOPkeni3-9" value="Характеристики" style="html=1;" parent="YZooqlN7icjInVOoK6Rc-1" vertex="1">
          <mxGeometry x="600" y="260" width="110" height="50" as="geometry" />
        </mxCell>
        <mxCell id="P-jC_-5i-dQlqOPkeni3-10" value="0..*" style="endArrow=open;html=1;endSize=12;startArrow=diamondThin;startSize=14;startFill=1;edgeStyle=orthogonalEdgeStyle;align=left;verticalAlign=bottom;exitX=1;exitY=0;exitDx=0;exitDy=0;entryX=0.5;entryY=0;entryDx=0;entryDy=0;" parent="YZooqlN7icjInVOoK6Rc-1" source="r74G87xnTTuVejgpiLVM-5" target="P-jC_-5i-dQlqOPkeni3-9" edge="1">
          <mxGeometry x="-0.7966" relative="1" as="geometry">
            <mxPoint x="380" y="149.9999999999999" as="sourcePoint" />
            <mxPoint x="205" y="269.9999999999999" as="targetPoint" />
            <mxPoint as="offset" />
            <Array as="points">
              <mxPoint x="655" y="140" />
            </Array>
          </mxGeometry>
        </mxCell>
        <mxCell id="P-jC_-5i-dQlqOPkeni3-11" value="1..*" style="edgeLabel;html=1;align=center;verticalAlign=middle;resizable=0;points=[];" parent="P-jC_-5i-dQlqOPkeni3-10" vertex="1" connectable="0">
          <mxGeometry x="0.6272" y="1" relative="1" as="geometry">
            <mxPoint x="14" y="35" as="offset" />
          </mxGeometry>
        </mxCell>
        <mxCell id="P-jC_-5i-dQlqOPkeni3-12" value="Предметы" style="html=1;" parent="YZooqlN7icjInVOoK6Rc-1" vertex="1">
          <mxGeometry x="720" y="260" width="110" height="50" as="geometry" />
        </mxCell>
        <mxCell id="P-jC_-5i-dQlqOPkeni3-13" value="Магазин" style="html=1;" parent="YZooqlN7icjInVOoK6Rc-1" vertex="1">
          <mxGeometry x="720" y="350" width="110" height="50" as="geometry" />
        </mxCell>
        <mxCell id="P-jC_-5i-dQlqOPkeni3-14" value="Extends" style="endArrow=block;endSize=16;endFill=0;html=1;" parent="YZooqlN7icjInVOoK6Rc-1" source="P-jC_-5i-dQlqOPkeni3-12" target="P-jC_-5i-dQlqOPkeni3-13" edge="1">
          <mxGeometry width="160" relative="1" as="geometry">
            <mxPoint x="654.6600000000001" y="399.9999999999999" as="sourcePoint" />
            <mxPoint x="600" y="400" as="targetPoint" />
          </mxGeometry>
        </mxCell>
        <mxCell id="P-jC_-5i-dQlqOPkeni3-15" value="0..*" style="endArrow=open;html=1;endSize=12;startArrow=diamondThin;startSize=14;startFill=1;edgeStyle=orthogonalEdgeStyle;align=left;verticalAlign=bottom;exitX=0.75;exitY=0;exitDx=0;exitDy=0;" parent="YZooqlN7icjInVOoK6Rc-1" source="r74G87xnTTuVejgpiLVM-5" target="P-jC_-5i-dQlqOPkeni3-12" edge="1">
          <mxGeometry x="-0.866" y="-7" relative="1" as="geometry">
            <mxPoint x="610" y="105.0199999999999" as="sourcePoint" />
            <mxPoint x="785" y="225.0199999999999" as="targetPoint" />
            <mxPoint x="7" y="-7" as="offset" />
            <Array as="points">
              <mxPoint x="453" y="105" />
              <mxPoint x="785" y="105" />
            </Array>
          </mxGeometry>
        </mxCell>
        <mxCell id="P-jC_-5i-dQlqOPkeni3-16" value="0..*" style="edgeLabel;html=1;align=center;verticalAlign=middle;resizable=0;points=[];" parent="P-jC_-5i-dQlqOPkeni3-15" vertex="1" connectable="0">
          <mxGeometry x="0.6272" y="1" relative="1" as="geometry">
            <mxPoint x="14" y="87.66" as="offset" />
          </mxGeometry>
        </mxCell>
        <mxCell id="P-jC_-5i-dQlqOPkeni3-17" value="Extends" style="endArrow=block;endSize=16;endFill=0;html=1;exitX=0.5;exitY=1;exitDx=0;exitDy=0;entryX=0.5;entryY=1;entryDx=0;entryDy=0;" parent="YZooqlN7icjInVOoK6Rc-1" source="P-jC_-5i-dQlqOPkeni3-9" target="r74G87xnTTuVejgpiLVM-0" edge="1">
          <mxGeometry width="160" relative="1" as="geometry">
            <mxPoint x="490" y="374.65999999999985" as="sourcePoint" />
            <mxPoint x="400" y="374.65999999999985" as="targetPoint" />
            <Array as="points">
              <mxPoint x="655" y="360" />
              <mxPoint x="325" y="360" />
            </Array>
          </mxGeometry>
        </mxCell>
      </root>
    </mxGraphModel>
  </diagram>
  <diagram id="zNTdQO73CkAW6-reI5ds" name="Шаг 4. Конкретизация диаграммы классов">
    <mxGraphModel dx="1673" dy="931" grid="1" gridSize="10" guides="1" tooltips="1" connect="1" arrows="1" fold="1" page="1" pageScale="1" pageWidth="827" pageHeight="1169" math="0" shadow="0">
      <root>
        <mxCell id="-4pAzXtG1ay6o5wked5e-0" />
        <mxCell id="-4pAzXtG1ay6o5wked5e-1" parent="-4pAzXtG1ay6o5wked5e-0" />
        <mxCell id="nZ-VDmbNCJafpkknIxvO-13" value="Extends" style="endArrow=block;endSize=16;endFill=0;html=1;" parent="-4pAzXtG1ay6o5wked5e-1" edge="1">
          <mxGeometry width="160" relative="1" as="geometry">
            <mxPoint x="935" y="880" as="sourcePoint" />
            <mxPoint x="1059.9999999999998" y="904.76" as="targetPoint" />
          </mxGeometry>
        </mxCell>
        <mxCell id="nZ-VDmbNCJafpkknIxvO-25" value="Игрок" style="swimlane;fontStyle=0;childLayout=stackLayout;horizontal=1;startSize=26;fillColor=#ffffff;horizontalStack=0;resizeParent=1;resizeParentMax=0;resizeLast=0;collapsible=1;marginBottom=0;fontFamily=Helvetica;fontSize=12;fontColor=#000000;align=center;strokeColor=#000000;html=1;" parent="-4pAzXtG1ay6o5wked5e-1" vertex="1">
          <mxGeometry x="410" y="80" width="180" height="110" as="geometry" />
        </mxCell>
        <mxCell id="nZ-VDmbNCJafpkknIxvO-26" value="-name: String&#xa;-password: String&#xa;-MуCharacter:MyCharacter" style="text;strokeColor=none;fillColor=none;align=left;verticalAlign=top;spacingLeft=4;spacingRight=4;overflow=hidden;rotatable=0;points=[[0,0.5],[1,0.5]];portConstraint=eastwest;" parent="nZ-VDmbNCJafpkknIxvO-25" vertex="1">
          <mxGeometry y="26" width="180" height="54" as="geometry" />
        </mxCell>
        <mxCell id="nZ-VDmbNCJafpkknIxvO-29" value="" style="line;strokeWidth=1;fillColor=none;align=left;verticalAlign=middle;spacingTop=-1;spacingLeft=3;spacingRight=3;rotatable=0;labelPosition=right;points=[];portConstraint=eastwest;" parent="nZ-VDmbNCJafpkknIxvO-25" vertex="1">
          <mxGeometry y="80" width="180" height="8" as="geometry" />
        </mxCell>
        <mxCell id="nZ-VDmbNCJafpkknIxvO-30" value="getters.." style="text;strokeColor=none;fillColor=none;align=left;verticalAlign=top;spacingLeft=4;spacingRight=4;overflow=hidden;rotatable=0;points=[[0,0.5],[1,0.5]];portConstraint=eastwest;" parent="nZ-VDmbNCJafpkknIxvO-25" vertex="1">
          <mxGeometry y="88" width="180" height="22" as="geometry" />
        </mxCell>
        <mxCell id="nZ-VDmbNCJafpkknIxvO-40" value="Персонаж" style="swimlane;fontStyle=0;childLayout=stackLayout;horizontal=1;startSize=26;fillColor=#ffffff;horizontalStack=0;resizeParent=1;resizeParentMax=0;resizeLast=0;collapsible=1;marginBottom=0;fontFamily=Helvetica;fontSize=12;fontColor=#000000;align=center;strokeColor=#000000;html=1;" parent="-4pAzXtG1ay6o5wked5e-1" vertex="1">
          <mxGeometry x="410" y="260" width="180" height="130" as="geometry" />
        </mxCell>
        <mxCell id="nZ-VDmbNCJafpkknIxvO-41" value="-name: СlassName&#xa;-MуCharacter:MyCharacter&#xa;-MySide:Side" style="text;strokeColor=none;fillColor=none;align=left;verticalAlign=top;spacingLeft=4;spacingRight=4;overflow=hidden;rotatable=0;points=[[0,0.5],[1,0.5]];portConstraint=eastwest;" parent="nZ-VDmbNCJafpkknIxvO-40" vertex="1">
          <mxGeometry y="26" width="180" height="54" as="geometry" />
        </mxCell>
        <mxCell id="nZ-VDmbNCJafpkknIxvO-42" value="" style="line;strokeWidth=1;fillColor=none;align=left;verticalAlign=middle;spacingTop=-1;spacingLeft=3;spacingRight=3;rotatable=0;labelPosition=right;points=[];portConstraint=eastwest;" parent="nZ-VDmbNCJafpkknIxvO-40" vertex="1">
          <mxGeometry y="80" width="180" height="8" as="geometry" />
        </mxCell>
        <mxCell id="nZ-VDmbNCJafpkknIxvO-43" value="GetClassName():ClassName&#xa;GetSide():Side" style="text;strokeColor=none;fillColor=none;align=left;verticalAlign=top;spacingLeft=4;spacingRight=4;overflow=hidden;rotatable=0;points=[[0,0.5],[1,0.5]];portConstraint=eastwest;" parent="nZ-VDmbNCJafpkknIxvO-40" vertex="1">
          <mxGeometry y="88" width="180" height="42" as="geometry" />
        </mxCell>
        <mxCell id="nZ-VDmbNCJafpkknIxvO-57" value="Класс" style="swimlane;fontStyle=0;childLayout=stackLayout;horizontal=1;startSize=26;fillColor=#ffffff;horizontalStack=0;resizeParent=1;resizeParentMax=0;resizeLast=0;collapsible=1;marginBottom=0;fontFamily=Helvetica;fontSize=12;fontColor=#000000;align=center;strokeColor=#000000;html=1;" parent="-4pAzXtG1ay6o5wked5e-1" vertex="1">
          <mxGeometry x="260" y="410" width="180" height="140" as="geometry" />
        </mxCell>
        <mxCell id="nZ-VDmbNCJafpkknIxvO-58" value="-name: String&#xa;-MуCharacter:MyCharacter" style="text;strokeColor=none;fillColor=none;align=left;verticalAlign=top;spacingLeft=4;spacingRight=4;overflow=hidden;rotatable=0;points=[[0,0.5],[1,0.5]];portConstraint=eastwest;" parent="nZ-VDmbNCJafpkknIxvO-57" vertex="1">
          <mxGeometry y="26" width="180" height="54" as="geometry" />
        </mxCell>
        <mxCell id="nZ-VDmbNCJafpkknIxvO-59" value="" style="line;strokeWidth=1;fillColor=none;align=left;verticalAlign=middle;spacingTop=-1;spacingLeft=3;spacingRight=3;rotatable=0;labelPosition=right;points=[];portConstraint=eastwest;" parent="nZ-VDmbNCJafpkknIxvO-57" vertex="1">
          <mxGeometry y="80" width="180" height="8" as="geometry" />
        </mxCell>
        <mxCell id="nZ-VDmbNCJafpkknIxvO-60" value="__strt__(): String&#xa;hits(): void&#xa;getters.." style="text;strokeColor=none;fillColor=none;align=left;verticalAlign=top;spacingLeft=4;spacingRight=4;overflow=hidden;rotatable=0;points=[[0,0.5],[1,0.5]];portConstraint=eastwest;" parent="nZ-VDmbNCJafpkknIxvO-57" vertex="1">
          <mxGeometry y="88" width="180" height="52" as="geometry" />
        </mxCell>
        <mxCell id="nZ-VDmbNCJafpkknIxvO-61" value="Сторона" style="swimlane;fontStyle=0;childLayout=stackLayout;horizontal=1;startSize=26;fillColor=#ffffff;horizontalStack=0;resizeParent=1;resizeParentMax=0;resizeLast=0;collapsible=1;marginBottom=0;fontFamily=Helvetica;fontSize=12;fontColor=#000000;align=center;strokeColor=#000000;html=1;" parent="-4pAzXtG1ay6o5wked5e-1" vertex="1">
          <mxGeometry x="560" y="410" width="180" height="140" as="geometry" />
        </mxCell>
        <mxCell id="nZ-VDmbNCJafpkknIxvO-62" value="-name: String" style="text;strokeColor=none;fillColor=none;align=left;verticalAlign=top;spacingLeft=4;spacingRight=4;overflow=hidden;rotatable=0;points=[[0,0.5],[1,0.5]];portConstraint=eastwest;" parent="nZ-VDmbNCJafpkknIxvO-61" vertex="1">
          <mxGeometry y="26" width="180" height="24" as="geometry" />
        </mxCell>
        <mxCell id="nZ-VDmbNCJafpkknIxvO-63" value="" style="line;strokeWidth=1;fillColor=none;align=left;verticalAlign=middle;spacingTop=-1;spacingLeft=3;spacingRight=3;rotatable=0;labelPosition=right;points=[];portConstraint=eastwest;" parent="nZ-VDmbNCJafpkknIxvO-61" vertex="1">
          <mxGeometry y="50" width="180" height="8" as="geometry" />
        </mxCell>
        <mxCell id="nZ-VDmbNCJafpkknIxvO-64" value="GetAvailableClass():Class&#xa;__init__(): void&#xa;status(): void&#xa;__str__(): string&#xa;lvl_up: void()&#xa;" style="text;strokeColor=none;fillColor=none;align=left;verticalAlign=top;spacingLeft=4;spacingRight=4;overflow=hidden;rotatable=0;points=[[0,0.5],[1,0.5]];portConstraint=eastwest;" parent="nZ-VDmbNCJafpkknIxvO-61" vertex="1">
          <mxGeometry y="58" width="180" height="82" as="geometry" />
        </mxCell>
        <mxCell id="nZ-VDmbNCJafpkknIxvO-65" value="Бой" style="swimlane;fontStyle=0;childLayout=stackLayout;horizontal=1;startSize=26;fillColor=#ffffff;horizontalStack=0;resizeParent=1;resizeParentMax=0;resizeLast=0;collapsible=1;marginBottom=0;fontFamily=Helvetica;fontSize=12;fontColor=#000000;align=center;strokeColor=#000000;html=1;" parent="-4pAzXtG1ay6o5wked5e-1" vertex="1">
          <mxGeometry x="30" y="410" width="180" height="130" as="geometry" />
        </mxCell>
        <mxCell id="nZ-VDmbNCJafpkknIxvO-66" value="-name: String&#xa;-password: String&#xa;-MуCharacter:MyCharacter" style="text;strokeColor=none;fillColor=none;align=left;verticalAlign=top;spacingLeft=4;spacingRight=4;overflow=hidden;rotatable=0;points=[[0,0.5],[1,0.5]];portConstraint=eastwest;" parent="nZ-VDmbNCJafpkknIxvO-65" vertex="1">
          <mxGeometry y="26" width="180" height="54" as="geometry" />
        </mxCell>
        <mxCell id="nZ-VDmbNCJafpkknIxvO-67" value="" style="line;strokeWidth=1;fillColor=none;align=left;verticalAlign=middle;spacingTop=-1;spacingLeft=3;spacingRight=3;rotatable=0;labelPosition=right;points=[];portConstraint=eastwest;" parent="nZ-VDmbNCJafpkknIxvO-65" vertex="1">
          <mxGeometry y="80" width="180" height="8" as="geometry" />
        </mxCell>
        <mxCell id="nZ-VDmbNCJafpkknIxvO-68" value="fight(): void&#xa;getters.." style="text;strokeColor=none;fillColor=none;align=left;verticalAlign=top;spacingLeft=4;spacingRight=4;overflow=hidden;rotatable=0;points=[[0,0.5],[1,0.5]];portConstraint=eastwest;" parent="nZ-VDmbNCJafpkknIxvO-65" vertex="1">
          <mxGeometry y="88" width="180" height="42" as="geometry" />
        </mxCell>
        <mxCell id="nZ-VDmbNCJafpkknIxvO-69" value="Монстр" style="swimlane;fontStyle=0;childLayout=stackLayout;horizontal=1;startSize=26;fillColor=#ffffff;horizontalStack=0;resizeParent=1;resizeParentMax=0;resizeLast=0;collapsible=1;marginBottom=0;fontFamily=Helvetica;fontSize=12;fontColor=#000000;align=center;strokeColor=#000000;html=1;" parent="-4pAzXtG1ay6o5wked5e-1" vertex="1">
          <mxGeometry x="30" y="580" width="180" height="140" as="geometry" />
        </mxCell>
        <mxCell id="nZ-VDmbNCJafpkknIxvO-70" value="-name: String&#xa;-password: String&#xa;-MуCharacter:MyCharacter" style="text;strokeColor=none;fillColor=none;align=left;verticalAlign=top;spacingLeft=4;spacingRight=4;overflow=hidden;rotatable=0;points=[[0,0.5],[1,0.5]];portConstraint=eastwest;" parent="nZ-VDmbNCJafpkknIxvO-69" vertex="1">
          <mxGeometry y="26" width="180" height="54" as="geometry" />
        </mxCell>
        <mxCell id="nZ-VDmbNCJafpkknIxvO-71" value="" style="line;strokeWidth=1;fillColor=none;align=left;verticalAlign=middle;spacingTop=-1;spacingLeft=3;spacingRight=3;rotatable=0;labelPosition=right;points=[];portConstraint=eastwest;" parent="nZ-VDmbNCJafpkknIxvO-69" vertex="1">
          <mxGeometry y="80" width="180" height="8" as="geometry" />
        </mxCell>
        <mxCell id="LEhMg8G8gTBsyLGHHS1J-1" value="__strt__(): String&#xa;hits(): void&#xa;getters.." style="text;strokeColor=none;fillColor=none;align=left;verticalAlign=top;spacingLeft=4;spacingRight=4;overflow=hidden;rotatable=0;points=[[0,0.5],[1,0.5]];portConstraint=eastwest;" vertex="1" parent="nZ-VDmbNCJafpkknIxvO-69">
          <mxGeometry y="88" width="180" height="52" as="geometry" />
        </mxCell>
        <mxCell id="nZ-VDmbNCJafpkknIxvO-73" value="Характеристики" style="swimlane;fontStyle=0;childLayout=stackLayout;horizontal=1;startSize=26;fillColor=#ffffff;horizontalStack=0;resizeParent=1;resizeParentMax=0;resizeLast=0;collapsible=1;marginBottom=0;fontFamily=Helvetica;fontSize=12;fontColor=#000000;align=center;strokeColor=#000000;html=1;" parent="-4pAzXtG1ay6o5wked5e-1" vertex="1">
          <mxGeometry x="780" y="410" width="180" height="130" as="geometry" />
        </mxCell>
        <mxCell id="nZ-VDmbNCJafpkknIxvO-74" value="-name: String&#xa;-Value: ArrayCharacteristic" style="text;strokeColor=none;fillColor=none;align=left;verticalAlign=top;spacingLeft=4;spacingRight=4;overflow=hidden;rotatable=0;points=[[0,0.5],[1,0.5]];portConstraint=eastwest;" parent="nZ-VDmbNCJafpkknIxvO-73" vertex="1">
          <mxGeometry y="26" width="180" height="54" as="geometry" />
        </mxCell>
        <mxCell id="nZ-VDmbNCJafpkknIxvO-75" value="" style="line;strokeWidth=1;fillColor=none;align=left;verticalAlign=middle;spacingTop=-1;spacingLeft=3;spacingRight=3;rotatable=0;labelPosition=right;points=[];portConstraint=eastwest;" parent="nZ-VDmbNCJafpkknIxvO-73" vertex="1">
          <mxGeometry y="80" width="180" height="8" as="geometry" />
        </mxCell>
        <mxCell id="nZ-VDmbNCJafpkknIxvO-76" value="GetMyCharacteristic():&#xa;ArrayCharacteristic" style="text;strokeColor=none;fillColor=none;align=left;verticalAlign=top;spacingLeft=4;spacingRight=4;overflow=hidden;rotatable=0;points=[[0,0.5],[1,0.5]];portConstraint=eastwest;" parent="nZ-VDmbNCJafpkknIxvO-73" vertex="1">
          <mxGeometry y="88" width="180" height="42" as="geometry" />
        </mxCell>
        <mxCell id="nZ-VDmbNCJafpkknIxvO-77" value="Предметы" style="swimlane;fontStyle=0;childLayout=stackLayout;horizontal=1;startSize=26;fillColor=#ffffff;horizontalStack=0;resizeParent=1;resizeParentMax=0;resizeLast=0;collapsible=1;marginBottom=0;fontFamily=Helvetica;fontSize=12;fontColor=#000000;align=center;strokeColor=#000000;html=1;" parent="-4pAzXtG1ay6o5wked5e-1" vertex="1">
          <mxGeometry x="990" y="410" width="190" height="140" as="geometry" />
        </mxCell>
        <mxCell id="nZ-VDmbNCJafpkknIxvO-78" value="-name: String&#xa;-MyItems:ArrayMyItems" style="text;strokeColor=none;fillColor=none;align=left;verticalAlign=top;spacingLeft=4;spacingRight=4;overflow=hidden;rotatable=0;points=[[0,0.5],[1,0.5]];portConstraint=eastwest;" parent="nZ-VDmbNCJafpkknIxvO-77" vertex="1">
          <mxGeometry y="26" width="190" height="44" as="geometry" />
        </mxCell>
        <mxCell id="nZ-VDmbNCJafpkknIxvO-79" value="" style="line;strokeWidth=1;fillColor=none;align=left;verticalAlign=middle;spacingTop=-1;spacingLeft=3;spacingRight=3;rotatable=0;labelPosition=right;points=[];portConstraint=eastwest;" parent="nZ-VDmbNCJafpkknIxvO-77" vertex="1">
          <mxGeometry y="70" width="190" height="8" as="geometry" />
        </mxCell>
        <mxCell id="nZ-VDmbNCJafpkknIxvO-80" value="GetOwndItems(): Array&#xa;Sorted(): item&#xa;throw_in_trash(): item&#xa;use: item" style="text;strokeColor=none;fillColor=none;align=left;verticalAlign=top;spacingLeft=4;spacingRight=4;overflow=hidden;rotatable=0;points=[[0,0.5],[1,0.5]];portConstraint=eastwest;" parent="nZ-VDmbNCJafpkknIxvO-77" vertex="1">
          <mxGeometry y="78" width="190" height="62" as="geometry" />
        </mxCell>
        <mxCell id="nZ-VDmbNCJafpkknIxvO-81" value="Магазин" style="swimlane;fontStyle=0;childLayout=stackLayout;horizontal=1;startSize=26;fillColor=#ffffff;horizontalStack=0;resizeParent=1;resizeParentMax=0;resizeLast=0;collapsible=1;marginBottom=0;fontFamily=Helvetica;fontSize=12;fontColor=#000000;align=center;strokeColor=#000000;html=1;" parent="-4pAzXtG1ay6o5wked5e-1" vertex="1">
          <mxGeometry x="990" y="585" width="180" height="100" as="geometry" />
        </mxCell>
        <mxCell id="nZ-VDmbNCJafpkknIxvO-82" value="-Items: ArrayItems" style="text;strokeColor=none;fillColor=none;align=left;verticalAlign=top;spacingLeft=4;spacingRight=4;overflow=hidden;rotatable=0;points=[[0,0.5],[1,0.5]];portConstraint=eastwest;" parent="nZ-VDmbNCJafpkknIxvO-81" vertex="1">
          <mxGeometry y="26" width="180" height="24" as="geometry" />
        </mxCell>
        <mxCell id="nZ-VDmbNCJafpkknIxvO-83" value="" style="line;strokeWidth=1;fillColor=none;align=left;verticalAlign=middle;spacingTop=-1;spacingLeft=3;spacingRight=3;rotatable=0;labelPosition=right;points=[];portConstraint=eastwest;" parent="nZ-VDmbNCJafpkknIxvO-81" vertex="1">
          <mxGeometry y="50" width="180" height="8" as="geometry" />
        </mxCell>
        <mxCell id="nZ-VDmbNCJafpkknIxvO-84" value="Buy():Item&#xa;Sale(): item&#xa;&#xa;" style="text;strokeColor=none;fillColor=none;align=left;verticalAlign=top;spacingLeft=4;spacingRight=4;overflow=hidden;rotatable=0;points=[[0,0.5],[1,0.5]];portConstraint=eastwest;" parent="nZ-VDmbNCJafpkknIxvO-81" vertex="1">
          <mxGeometry y="58" width="180" height="42" as="geometry" />
        </mxCell>
        <mxCell id="nZ-VDmbNCJafpkknIxvO-85" value="Extends" style="endArrow=block;endSize=16;endFill=0;html=1;" parent="-4pAzXtG1ay6o5wked5e-1" source="nZ-VDmbNCJafpkknIxvO-69" target="nZ-VDmbNCJafpkknIxvO-68" edge="1">
          <mxGeometry x="-0.5" y="-30" width="160" relative="1" as="geometry">
            <mxPoint x="320" y="600" as="sourcePoint" />
            <mxPoint x="320" y="550" as="targetPoint" />
            <mxPoint as="offset" />
          </mxGeometry>
        </mxCell>
        <mxCell id="nZ-VDmbNCJafpkknIxvO-86" value="1" style="endArrow=open;html=1;endSize=12;startArrow=diamondThin;startSize=14;startFill=1;edgeStyle=orthogonalEdgeStyle;align=left;verticalAlign=bottom;exitX=0;exitY=0;exitDx=0;exitDy=0;entryX=0.5;entryY=0;entryDx=0;entryDy=0;" parent="-4pAzXtG1ay6o5wked5e-1" source="nZ-VDmbNCJafpkknIxvO-40" target="nZ-VDmbNCJafpkknIxvO-65" edge="1">
          <mxGeometry x="-0.7966" relative="1" as="geometry">
            <mxPoint x="315" y="240" as="sourcePoint" />
            <mxPoint x="140" y="360" as="targetPoint" />
            <mxPoint as="offset" />
            <Array as="points">
              <mxPoint x="120" y="260" />
            </Array>
          </mxGeometry>
        </mxCell>
        <mxCell id="nZ-VDmbNCJafpkknIxvO-87" value="0..*" style="edgeLabel;html=1;align=center;verticalAlign=middle;resizable=0;points=[];" parent="nZ-VDmbNCJafpkknIxvO-86" vertex="1" connectable="0">
          <mxGeometry x="0.6272" y="1" relative="1" as="geometry">
            <mxPoint x="14" y="35" as="offset" />
          </mxGeometry>
        </mxCell>
        <mxCell id="nZ-VDmbNCJafpkknIxvO-88" value="1" style="endArrow=open;html=1;endSize=12;startArrow=diamondThin;startSize=14;startFill=0;edgeStyle=orthogonalEdgeStyle;align=left;verticalAlign=bottom;exitX=0;exitY=0.5;exitDx=0;exitDy=0;entryX=0.5;entryY=0;entryDx=0;entryDy=0;" parent="-4pAzXtG1ay6o5wked5e-1" source="nZ-VDmbNCJafpkknIxvO-41" target="nZ-VDmbNCJafpkknIxvO-57" edge="1">
          <mxGeometry x="-0.5714" relative="1" as="geometry">
            <mxPoint x="345" y="300" as="sourcePoint" />
            <mxPoint x="300" y="395" as="targetPoint" />
            <mxPoint as="offset" />
            <Array as="points">
              <mxPoint x="350" y="313" />
            </Array>
          </mxGeometry>
        </mxCell>
        <mxCell id="nZ-VDmbNCJafpkknIxvO-89" value="0..*" style="edgeLabel;html=1;align=center;verticalAlign=middle;resizable=0;points=[];" parent="nZ-VDmbNCJafpkknIxvO-88" vertex="1" connectable="0">
          <mxGeometry x="-0.7647" y="-8" relative="1" as="geometry">
            <mxPoint x="-43.66999999999999" y="73" as="offset" />
          </mxGeometry>
        </mxCell>
        <mxCell id="nZ-VDmbNCJafpkknIxvO-90" value="1" style="endArrow=open;html=1;endSize=12;startArrow=diamondThin;startSize=14;startFill=1;edgeStyle=orthogonalEdgeStyle;align=left;verticalAlign=bottom;entryX=0.5;entryY=0;entryDx=0;entryDy=0;" parent="-4pAzXtG1ay6o5wked5e-1" source="nZ-VDmbNCJafpkknIxvO-30" target="nZ-VDmbNCJafpkknIxvO-40" edge="1">
          <mxGeometry x="-0.7143" y="15" relative="1" as="geometry">
            <mxPoint x="649.58" y="160" as="sourcePoint" />
            <mxPoint x="649.58" y="230" as="targetPoint" />
            <mxPoint as="offset" />
            <Array as="points">
              <mxPoint x="500" y="220" />
              <mxPoint x="500" y="220" />
            </Array>
          </mxGeometry>
        </mxCell>
        <mxCell id="nZ-VDmbNCJafpkknIxvO-91" value="1" style="edgeLabel;html=1;align=center;verticalAlign=middle;resizable=0;points=[];" parent="nZ-VDmbNCJafpkknIxvO-90" vertex="1" connectable="0">
          <mxGeometry x="0.6272" y="1" relative="1" as="geometry">
            <mxPoint x="14" as="offset" />
          </mxGeometry>
        </mxCell>
        <mxCell id="nZ-VDmbNCJafpkknIxvO-92" value="0..*" style="endArrow=open;html=1;endSize=12;startArrow=diamondThin;startSize=14;startFill=1;edgeStyle=orthogonalEdgeStyle;align=left;verticalAlign=bottom;entryX=0.5;entryY=0;entryDx=0;entryDy=0;" parent="-4pAzXtG1ay6o5wked5e-1" source="nZ-VDmbNCJafpkknIxvO-40" target="nZ-VDmbNCJafpkknIxvO-77" edge="1">
          <mxGeometry x="-0.866" y="-7" relative="1" as="geometry">
            <mxPoint x="570" y="255" as="sourcePoint" />
            <mxPoint x="902.5" y="375" as="targetPoint" />
            <mxPoint x="7" y="-7" as="offset" />
            <Array as="points">
              <mxPoint x="571" y="220" />
              <mxPoint x="1080" y="220" />
            </Array>
          </mxGeometry>
        </mxCell>
        <mxCell id="nZ-VDmbNCJafpkknIxvO-93" value="0..*" style="edgeLabel;html=1;align=center;verticalAlign=middle;resizable=0;points=[];" parent="nZ-VDmbNCJafpkknIxvO-92" vertex="1" connectable="0">
          <mxGeometry x="0.6272" y="1" relative="1" as="geometry">
            <mxPoint x="14" y="87.66" as="offset" />
          </mxGeometry>
        </mxCell>
        <mxCell id="nZ-VDmbNCJafpkknIxvO-94" value="Extends" style="endArrow=block;endSize=16;endFill=0;html=1;exitX=0;exitY=0.5;exitDx=0;exitDy=0;" parent="-4pAzXtG1ay6o5wked5e-1" source="nZ-VDmbNCJafpkknIxvO-62" target="nZ-VDmbNCJafpkknIxvO-58" edge="1">
          <mxGeometry width="160" relative="1" as="geometry">
            <mxPoint x="564.17" y="510" as="sourcePoint" />
            <mxPoint x="474.16999999999996" y="510" as="targetPoint" />
          </mxGeometry>
        </mxCell>
        <mxCell id="nZ-VDmbNCJafpkknIxvO-95" value="Extends" style="endArrow=block;endSize=16;endFill=0;html=1;" parent="-4pAzXtG1ay6o5wked5e-1" source="nZ-VDmbNCJafpkknIxvO-76" target="nZ-VDmbNCJafpkknIxvO-60" edge="1">
          <mxGeometry width="160" relative="1" as="geometry">
            <mxPoint x="780" y="630" as="sourcePoint" />
            <mxPoint x="450" y="630" as="targetPoint" />
            <Array as="points">
              <mxPoint x="870" y="680" />
              <mxPoint x="350" y="680" />
            </Array>
          </mxGeometry>
        </mxCell>
        <mxCell id="nZ-VDmbNCJafpkknIxvO-96" value="0..*" style="endArrow=open;html=1;endSize=12;startArrow=diamondThin;startSize=14;startFill=1;edgeStyle=orthogonalEdgeStyle;align=left;verticalAlign=bottom;" parent="-4pAzXtG1ay6o5wked5e-1" source="nZ-VDmbNCJafpkknIxvO-40" target="nZ-VDmbNCJafpkknIxvO-73" edge="1">
          <mxGeometry x="-0.7966" relative="1" as="geometry">
            <mxPoint x="680" y="290" as="sourcePoint" />
            <mxPoint x="855" y="410" as="targetPoint" />
            <mxPoint as="offset" />
            <Array as="points">
              <mxPoint x="880" y="290" />
            </Array>
          </mxGeometry>
        </mxCell>
        <mxCell id="nZ-VDmbNCJafpkknIxvO-97" value="1..*" style="edgeLabel;html=1;align=center;verticalAlign=middle;resizable=0;points=[];" parent="nZ-VDmbNCJafpkknIxvO-96" vertex="1" connectable="0">
          <mxGeometry x="0.6272" y="1" relative="1" as="geometry">
            <mxPoint x="14" y="35" as="offset" />
          </mxGeometry>
        </mxCell>
        <mxCell id="nZ-VDmbNCJafpkknIxvO-99" value="Extends" style="endArrow=block;endSize=16;endFill=0;html=1;" parent="-4pAzXtG1ay6o5wked5e-1" source="nZ-VDmbNCJafpkknIxvO-77" target="nZ-VDmbNCJafpkknIxvO-81" edge="1">
          <mxGeometry x="0.2807" y="38" width="160" relative="1" as="geometry">
            <mxPoint x="570" y="458" as="sourcePoint" />
            <mxPoint x="450" y="466.5714285714289" as="targetPoint" />
            <mxPoint as="offset" />
          </mxGeometry>
        </mxCell>
        <mxCell id="nZ-VDmbNCJafpkknIxvO-100" value="1" style="endArrow=open;html=1;endSize=12;startArrow=diamondThin;startSize=14;startFill=0;edgeStyle=orthogonalEdgeStyle;align=left;verticalAlign=bottom;" parent="-4pAzXtG1ay6o5wked5e-1" source="nZ-VDmbNCJafpkknIxvO-40" target="nZ-VDmbNCJafpkknIxvO-61" edge="1">
          <mxGeometry x="-0.5429" relative="1" as="geometry">
            <mxPoint x="680" y="340" as="sourcePoint" />
            <mxPoint x="725" y="435" as="targetPoint" />
            <Array as="points">
              <mxPoint x="660" y="340" />
            </Array>
            <mxPoint as="offset" />
          </mxGeometry>
        </mxCell>
        <mxCell id="nZ-VDmbNCJafpkknIxvO-101" value="0..*" style="edgeLabel;html=1;align=center;verticalAlign=middle;resizable=0;points=[];" parent="nZ-VDmbNCJafpkknIxvO-100" vertex="1" connectable="0">
          <mxGeometry x="0.7001" y="6" relative="1" as="geometry">
            <mxPoint x="13.99" as="offset" />
          </mxGeometry>
        </mxCell>
      </root>
    </mxGraphModel>
  </diagram>
</mxfile>
